<?xml version="1.0" standalone="no"?>
<!DOCTYPE svg PUBLIC "-//W3C//DTD SVG 20010904//EN"
 "http://www.w3.org/TR/2001/REC-SVG-20010904/DTD/svg10.dtd">
<svg version="1.0" xmlns="http://www.w3.org/2000/svg"
 width="16.000000pt" height="16.000000pt" viewBox="0 0 16.000000 16.000000"
 preserveAspectRatio="xMidYMid meet">
<metadata>
Created by potrace 1.11, written by Peter Selinger 2001-2013
</metadata>
<g transform="translate(0.000000,16.000000) scale(0.003125,-0.003125)"
fill="#000000" stroke="none">
<path d="M3983 4019 c-58 -17 -81 -85 -49 -147 23 -45 37 -54 341 -227 22 -13
60 -35 85 -49 l45 -26 -1790 -1 c-984 0 -1803 -2 -1820 -4 -16 -2 -52 -6 -80
-9 -273 -30 -540 -190 -645 -387 -49 -92 -61 -144 -65 -269 -10 -374 204 -589
675 -679 80 -15 111 -21 275 -47 89 -14 198 -39 264 -61 151 -49 228 -112 257
-209 70 -241 -56 -428 -341 -506 -75 -20 -109 -22 -560 -27 -437 -5 -483 -8
-508 -24 -87 -57 -83 -177 7 -228 l41 -23 425 0 c491 0 552 5 705 48 200 56
376 178 469 325 77 121 109 224 109 361 0 279 -132 458 -418 565 -74 28 -196
59 -360 90 -11 2 -63 11 -115 20 -430 73 -541 131 -586 307 -61 238 104 429
411 474 48 7 1874 13 1905 6 13 -3 15 -121 14 -1000 0 -778 3 -1007 12 -1042
36 -124 206 -148 277 -38 21 33 27 54 28 103 0 33 0 491 1 1018 0 722 3 957
11 958 58 5 1394 2 1391 -2 -3 -6 -43 -29 -219 -129 -208 -119 -243 -148 -252
-219 -9 -68 28 -103 111 -103 52 1 147 50 556 287 179 103 345 199 370 213 25
14 61 35 80 47 19 12 43 24 53 28 9 3 17 11 17 16 0 7 -196 124 -515 306 -22
13 -138 79 -257 148 -120 69 -235 128 -255 131 -21 4 -45 9 -53 11 -8 1 -29
-1 -47 -6z"/>
</g>
</svg>
